<svg xmlns="http://www.w3.org/2000/svg" version="1.1" xmlns:xlink="http://www.w3.org/1999/xlink" xmlns:svgjs="http://svgjs.dev/svgjs" width="2000" height="363" viewBox="0 0 2000 363"><g transform="matrix(1,0,0,1,-1.2121212121212466,-1.2002967926934218)"><svg viewBox="0 0 396 72" data-background-color="#ffffff" preserveAspectRatio="xMidYMid meet" height="363" width="2000" xmlns="http://www.w3.org/2000/svg" xmlns:xlink="http://www.w3.org/1999/xlink"><g id="tight-bounds" transform="matrix(1,0,0,1,0.2400000000000091,0.2380753968978695)"><svg viewBox="0 0 395.52 71.52384920620428" height="71.52384920620428" width="395.52"><g><svg viewBox="0 0 500.91979339619894 90.58381818181819" height="71.52384920620428" width="395.52"><g transform="matrix(1,0,0,1,105.39979339619897,12.51918181818182)"><svg viewBox="0 0 395.52 65.54545454545455" height="65.54545454545455" width="395.52"><g id="textblocktransform"><svg viewBox="0 0 395.52 65.54545454545455" height="65.54545454545455" width="395.52" id="textblock"><g><svg viewBox="0 0 395.52 65.54545454545455" height="65.54545454545455" width="395.52"><g transform="matrix(1,0,0,1,0,0)"><svg width="395.52" viewBox="1.55 -43.35 263.97999999999996 43.75" height="65.54545454545455" data-palette-color="#c4975b"><path d="M12.15 0.4Q6.95 0.4 4.25-2.78 1.55-5.95 1.55-11.7L1.55-11.7 1.55-32.15Q1.55-37.7 4.25-40.53 6.95-43.35 12.15-43.35L12.15-43.35Q17.35-43.35 20.05-40.53 22.75-37.7 22.75-32.15L22.75-32.15 22.75-11.7Q22.75-5.9 20.05-2.75 17.35 0.4 12.15 0.4L12.15 0.4ZM12.15-7.5Q13.3-7.5 13.7-8.5 14.1-9.5 14.1-11.3L14.1-11.3 14.1-32.3Q14.1-33.7 13.73-34.58 13.35-35.45 12.2-35.45L12.2-35.45Q10.05-35.45 10.05-32.2L10.05-32.2 10.05-11.25Q10.05-9.4 10.5-8.45 10.95-7.5 12.15-7.5L12.15-7.5ZM26.2 0L26.2-42.95 37.55-42.95Q42.7-42.95 44.9-39.63 47.1-36.3 47.1-29.9L47.1-29.9Q47.1-23.5 45.15-20.25 43.2-17 38.15-17L38.15-17 34.65-17 34.65 0 26.2 0ZM34.65-24.75L35.15-24.75Q36.7-24.75 37.42-25.33 38.15-25.9 38.37-26.98 38.6-28.05 38.6-30.05L38.6-30.05Q38.6-32.75 38-33.95 37.4-35.15 35.6-35.15L35.6-35.15 34.65-35.15 34.65-24.75ZM59.75 0.4Q54.45 0.4 51.87-2.6 49.3-5.6 49.3-11.5L49.3-11.5 49.3-42.95 57.65-42.95 57.65-11.85Q57.65-9.8 58.05-8.65 58.45-7.5 59.75-7.5L59.75-7.5Q61.05-7.5 61.45-8.63 61.85-9.75 61.85-11.85L61.85-11.85 61.85-42.95 70.2-42.95 70.2-11.5Q70.2-5.6 67.62-2.6 65.05 0.4 59.75 0.4L59.75 0.4ZM83.69 0.4Q77.84 0.4 75.24-2.5 72.64-5.4 72.64-11.85L72.64-11.85 72.64-16.05 81.09-16.05 81.09-10.7Q81.09-7.5 83.14-7.5L83.14-7.5Q84.29-7.5 84.74-8.18 85.19-8.85 85.19-10.45L85.19-10.45Q85.19-12.55 84.69-13.93 84.19-15.3 83.42-16.23 82.64-17.15 80.64-19.1L80.64-19.1 76.94-22.8Q72.64-27 72.64-32.1L72.64-32.1Q72.64-37.6 75.17-40.48 77.69-43.35 82.54-43.35L82.54-43.35Q88.34-43.35 90.89-40.28 93.44-37.2 93.44-30.65L93.44-30.65 84.69-30.65 84.64-33.6Q84.64-34.45 84.17-34.95 83.69-35.45 82.84-35.45L82.84-35.45Q81.84-35.45 81.34-34.9 80.84-34.35 80.84-33.4L80.84-33.4Q80.84-31.3 83.24-29.05L83.24-29.05 88.24-24.25Q89.99-22.55 91.14-21.03 92.29-19.5 92.99-17.43 93.69-15.35 93.69-12.5L93.69-12.5Q93.69-6.15 91.37-2.88 89.04 0.4 83.69 0.4L83.69 0.4ZM104.29 0L96.54 0 96.54-42.95 109.64-42.95 113.24-16.75 116.84-42.95 130.04-42.95 130.04 0 122.19 0 122.19-30.95 117.24 0 109.54 0 104.29-30.95 104.29 0ZM141.04 0L132.69 0 136.84-42.95 151.39-42.95 155.49 0 147.34 0 146.74-6.95 141.54-6.95 141.04 0ZM143.79-35.65L142.19-13.8 146.09-13.8 144.19-35.65 143.79-35.65ZM168.28 0.4Q162.44 0.4 159.84-2.5 157.24-5.4 157.24-11.85L157.24-11.85 157.24-16.05 165.69-16.05 165.69-10.7Q165.69-7.5 167.74-7.5L167.74-7.5Q168.88-7.5 169.34-8.18 169.78-8.85 169.78-10.45L169.78-10.45Q169.78-12.55 169.28-13.93 168.78-15.3 168.01-16.23 167.24-17.15 165.24-19.1L165.24-19.1 161.53-22.8Q157.24-27 157.24-32.1L157.24-32.1Q157.24-37.6 159.76-40.48 162.28-43.35 167.13-43.35L167.13-43.35Q172.94-43.35 175.49-40.28 178.03-37.2 178.03-30.65L178.03-30.65 169.28-30.65 169.24-33.6Q169.24-34.45 168.76-34.95 168.28-35.45 167.44-35.45L167.44-35.45Q166.44-35.45 165.94-34.9 165.44-34.35 165.44-33.4L165.44-33.4Q165.44-31.3 167.84-29.05L167.84-29.05 172.84-24.25Q174.59-22.55 175.74-21.03 176.88-19.5 177.59-17.43 178.28-15.35 178.28-12.5L178.28-12.5Q178.28-6.15 175.96-2.88 173.63 0.4 168.28 0.4L168.28 0.4ZM193.43 0L184.83 0 184.83-34.7 179.73-34.7 179.73-42.95 198.53-42.95 198.53-34.7 193.43-34.7 193.43 0ZM218.68 0L200.93 0 200.93-42.95 218.13-42.95 218.13-34.65 209.68-34.65 209.68-26.3 217.78-26.3 217.78-18.2 209.68-18.2 209.68-8.35 218.68-8.35 218.68 0ZM221.53 0L221.53-42.95 234.73-42.95Q237.88-42.95 239.6-41.53 241.33-40.1 241.93-37.52 242.53-34.95 242.53-30.95L242.53-30.95Q242.53-27.3 241.58-25.25 240.63-23.2 238.28-22.4L238.28-22.4Q240.23-22 241.1-20.45 241.98-18.9 241.98-16.25L241.98-16.25 241.88 0 233.48 0 233.48-16.8Q233.48-18.6 232.78-19.1 232.08-19.6 230.23-19.6L230.23-19.6 230.23 0 221.53 0ZM230.28-27.05L232.33-27.05Q234.13-27.05 234.13-30.95L234.13-30.95Q234.13-32.65 233.98-33.5 233.83-34.35 233.43-34.68 233.03-35 232.28-35L232.28-35 230.28-35 230.28-27.05ZM258.68 0L250.58 0 250.58-14.15 243.73-42.95 252.23-42.95 254.63-28.4 257.03-42.95 265.53-42.95 258.68-14.15 258.68 0Z" opacity="1" transform="matrix(1,0,0,1,0,0)" fill="#c4975b" class="undefined-text-0" data-fill-palette-color="primary" id="text-0"></path></svg></g></svg></g></svg></g></svg></g><g><svg viewBox="0 0 89.92608466892625 90.58381818181819" height="90.58381818181819" width="89.92608466892625"><g><svg xmlns="http://www.w3.org/2000/svg" xmlns:xlink="http://www.w3.org/1999/xlink" version="1.1" x="0" y="0" viewBox="2.436072417348477 2 59.564337079562 60.00000000000001" style="enable-background:new 0 0 64 64;" xml:space="preserve" height="90.58381818181819" width="89.92608466892625" class="icon-icon-0" data-fill-palette-color="accent" id="icon-0"><path d="M32 32c1.654 0 3-1.346 3-3v-4.586l2-2v8.503l-0.963 5.78L30.593 48.15c-0.434 0.992-0.416 2.095 0.05 3.028 0.442 0.886 1.222 1.5 2.195 1.73 0.268 0.063 0.536 0.094 0.799 0.094 1.189 0 2.296-0.62 2.886-1.654l6.317-9.806c0.056-0.087 0.099-0.183 0.125-0.284L44.102 37h1.707l0.129 5.416c0.048 2.01 1.66 3.584 3.67 3.584 1.874 0 3.442-1.404 3.649-3.266 0.006-0.05 0.007-0.1 0.005-0.15l-0.264-6.624c-0.004-0.114-0.028-0.226-0.07-0.332l-2-5C50.777 30.249 50.409 30 50 30h-3v-3.674l3.274 0.936c0.269 0.077 0.541 0.114 0.811 0.114 0.625 0 1.236-0.202 1.752-0.592C53.576 26.227 54 25.376 54 24.451c0-1.298-0.872-2.454-2.12-2.811l-0.759-0.217L52.835 12H61c0.347 0 0.668-0.18 0.851-0.474 0.182-0.295 0.199-0.663 0.044-0.973L60.118 7l1.776-3.553c0.155-0.31 0.138-0.678-0.044-0.973C61.668 2.18 61.347 2 61 2h-9c-0.552 0-1 0.448-1 1v7.91l-1.811 9.961L47 20.246V20c0-2.757-2.243-5-5-5h-5.171c-0.801 0-1.555 0.312-2.122 0.879l-5.414 5.414C29.105 21.48 29 21.735 29 22v7C29 30.654 30.346 32 32 32zM53 4h6.382l-1.276 2.553c-0.141 0.282-0.141 0.613 0 0.895L59.382 10H53V4zM51.008 36.212l0.254 6.367C51.139 43.394 50.439 44 49.609 44c-0.915 0-1.649-0.717-1.671-1.632l-0.152-6.392c-0.013-0.543-0.457-0.976-1-0.976h-3.452H43.22l0.6-3H46h3.323L51.008 36.212zM52 24.451c0 0.292-0.134 0.561-0.367 0.737-0.233 0.177-0.528 0.231-0.809 0.151l-4.581-1.309L43 23.219v-1.938l2.741 0.686 5.589 1.597C51.725 23.676 52 24.041 52 24.451zM31 22.414l5.121-5.121C36.31 17.104 36.562 17 36.829 17H42c1.559 0 2.843 1.194 2.987 2.716l-2.744-0.686c-0.296-0.074-0.615-0.007-0.858 0.182C41.142 19.401 41 19.692 41 20v4c0 0.459 0.312 0.859 0.757 0.97L45 25.781V30h-2c-0.477 0-0.887 0.336-0.98 0.804l-1 5c-0.059 0.294 0.017 0.599 0.207 0.83C41.417 36.866 41.7 37 42 37h0.032l-0.958 3.59-6.26 9.719c-0.304 0.533-0.912 0.796-1.516 0.652-0.495-0.117-0.745-0.433-0.867-0.678-0.2-0.4-0.202-0.885-0.02-1.304l5.491-11.551c0.04-0.084 0.068-0.173 0.083-0.265l1-6C38.996 31.11 39 31.055 39 31V20c0-0.404-0.244-0.769-0.617-0.924C38.259 19.025 38.129 19 38 19c-0.26 0-0.516 0.102-0.707 0.293l-4 4C33.105 23.48 33 23.735 33 24v5c0 0.551-0.449 1-1 1s-1-0.449-1-1V22.414z" fill="#c4975b" data-fill-palette-color="accent"></path><path d="M41.5 14c3.033 0 5.5-2.467 5.5-5.5S44.533 3 41.5 3 36 5.467 36 8.5 38.467 14 41.5 14zM41.5 5C43.43 5 45 6.57 45 8.5S43.43 12 41.5 12 38 10.43 38 8.5 39.57 5 41.5 5z" fill="#c4975b" data-fill-palette-color="accent"></path><path d="M56 42v6H43c-0.552 0-1 0.448-1 1v6H29c-0.552 0-1 0.448-1 1v6h2v-5h13c0.552 0 1-0.448 1-1v-6h13c0.552 0 1-0.448 1-1v-6h4v-2h-5C56.448 41 56 41.448 56 42z" fill="#c4975b" data-fill-palette-color="accent"></path><path d="M5.854 62h0.23c1.594 0 2.962-1.083 3.327-2.635l2.78-11.815 4.295 12.17c0.481 1.364 1.777 2.28 3.223 2.28 1.099 0 2.103-0.508 2.753-1.393 0.651-0.886 0.837-1.996 0.509-3.045L19 44.847v-3.896l2.444 0.524c0.207 0.044 0.415 0.066 0.621 0.066 0.666 0 1.314-0.227 1.844-0.655C24.602 40.326 25 39.492 25 38.59c0-1.396-0.994-2.608-2.363-2.883L19 34.98V31c0-2.154-1.377-3.977-3.29-4.679C16.503 25.435 17 24.279 17 23c0-2.757-2.243-5-5-5s-5 2.243-5 5c0 1.279 0.497 2.435 1.29 3.321C6.377 27.023 5 28.846 5 31v11.917L2.483 58.02c-0.166 0.993 0.113 2.003 0.764 2.771C3.897 61.56 4.848 62 5.854 62zM23 38.6c0 0.285-0.127 0.552-0.349 0.731-0.222 0.18-0.51 0.248-0.788 0.188L11 37.191V33c0-0.551 0.449-1 1-1s1 0.449 1 1v2c0 0.477 0.336 0.887 0.804 0.98l8.44 1.688C22.682 37.756 23 38.144 23 38.6zM12 20c1.654 0 3 1.346 3 3s-1.346 3-3 3-3-1.346-3-3S10.346 20 12 20zM4.456 58.349l2.531-15.185C6.996 43.11 7 43.055 7 43V31c0-1.654 1.346-3 3-3h4c1.654 0 3 1.346 3 3v3.58l-2-0.4V33c0-1.654-1.346-3-3-3s-3 1.346-3 3v5c0 0.472 0.33 0.879 0.791 0.978L17 40.523V45c0 0.101 0.015 0.202 0.045 0.298l4.019 12.86c0.136 0.435 0.059 0.896-0.211 1.263C20.583 59.79 20.167 60 19.711 60c-0.6 0-1.138-0.38-1.337-0.946l-5.431-15.387C12.801 43.266 12.422 43 12 43c-0.018 0-0.036 0-0.055 0.001-0.443 0.024-0.817 0.337-0.919 0.77L7.465 58.907C7.313 59.55 6.746 60 6.085 60h-0.23c-0.417 0-0.812-0.183-1.082-0.501S4.387 58.761 4.456 58.349z" fill="#c4975b" data-fill-palette-color="accent"></path></svg></g></svg></g></svg></g><defs></defs></svg><rect width="395.52" height="71.52384920620428" fill="none" stroke="none" visibility="hidden"></rect></g></svg></g></svg>