<?xml version="1.0" standalone="no"?>
<!DOCTYPE svg PUBLIC "-//W3C//DTD SVG 1.0//EN" "http://www.w3.org/TR/2001/REC-SVG-20010904/DTD/svg10.dtd">
<svg xmlns="http://www.w3.org/2000/svg" xmlns:xlink="http://www.w3.org/1999/xlink" id="body_1" width="160" height="29">

<g transform="matrix(0.079889804 0 0 0.079889804 0.11019468 -0)">
	<g transform="matrix(1 0 0 1 -1.2121212 -1.2002968)">
		<g transform="matrix(5.0416665 0 0 5.0416665 3.4999948 -0)">
			<g transform="matrix(1 0 0 1 0.24 0.23807539)">
				<g transform="matrix(1 0 0 1 0 0)">
					<g>
						<g transform="matrix(0.78958744 0 0 0.78958744 0 0)">
							<g transform="matrix(1 0 0 1 105.399796 12.519182)">
								<g transform="matrix(1 0 0 1 0 0)">
									<g>
										<g transform="matrix(1 0 0 1 0 0)">
											<g>
												<g transform="matrix(1 0 0 1 0 0)">
													<g transform="matrix(1 0 0 1 0 0)">
														<g transform="matrix(1.4981818 0 0 1.4981818 -1.4832082 64.42182)">
                                                            <path transform="matrix(1 0 0 1 0 0)"  d="M12.15 0.4C 8.683333 0.40000004 6.05 -0.65999997 4.25 -2.78C 2.45 -4.8933334 1.55 -7.866667 1.55 -11.7L1.55 -11.7L1.55 -32.15C 1.55 -35.850002 2.45 -38.643333 4.25 -40.53C 6.05 -42.41 8.683333 -43.35 12.15 -43.35C 15.616668 -43.35 18.25 -42.41 20.05 -40.53C 21.85 -38.643333 22.75 -35.850002 22.75 -32.15L22.75 -32.15L22.75 -11.7C 22.75 -7.8333335 21.85 -4.85 20.05 -2.75C 18.25 -0.65 15.616668 0.40000004 12.15 0.4zM12.15 -7.5C 12.916667 -7.5 13.433333 -7.8333335 13.7 -8.5C 13.966667 -9.166667 14.1 -10.1 14.1 -11.3L14.1 -11.3L14.1 -32.3C 14.1 -33.233334 13.976667 -33.993336 13.73 -34.58C 13.476667 -35.160004 12.966667 -35.450005 12.2 -35.45C 10.766666 -35.450005 10.05 -34.36667 10.05 -32.2L10.05 -32.2L10.05 -11.25C 10.05 -10.016666 10.200001 -9.083333 10.5 -8.45C 10.8 -7.8166666 11.35 -7.5 12.15 -7.5zM26.2 0L26.2 -42.95L37.55 -42.95C 40.983334 -42.950005 43.433334 -41.843338 44.9 -39.63C 46.36667 -37.410004 47.1 -34.166668 47.1 -29.9C 47.1 -25.633335 46.45 -22.416668 45.15 -20.25C 43.850002 -18.083334 41.51667 -17 38.15 -17L38.15 -17L34.65 -17L34.65 0L26.2 0zM34.65 -24.75L35.15 -24.75C 36.183334 -24.75 36.940002 -24.943333 37.42 -25.33C 37.90667 -25.71 38.223335 -26.26 38.37 -26.98C 38.523335 -27.693335 38.6 -28.716667 38.6 -30.05C 38.6 -31.85 38.4 -33.15 38 -33.95C 37.600002 -34.75 36.800003 -35.15 35.6 -35.15L35.6 -35.15L34.65 -35.15L34.65 -24.75zM59.75 0.4C 56.21667 0.40000004 53.590004 -0.6 51.87 -2.6C 50.15667 -4.6 49.300003 -7.5666666 49.3 -11.5L49.3 -11.5L49.3 -42.95L57.65 -42.95L57.65 -11.85C 57.65 -10.483334 57.783333 -9.416667 58.05 -8.65C 58.316666 -7.883333 58.883335 -7.5 59.75 -7.5C 60.61667 -7.5 61.183334 -7.876667 61.45 -8.63C 61.716667 -9.376667 61.85 -10.450001 61.85 -11.85L61.85 -11.85L61.85 -42.95L70.2 -42.95L70.2 -11.5C 70.2 -7.5666666 69.34 -4.6 67.62 -2.6C 65.90667 -0.6 63.283337 0.40000004 59.75 0.4zM83.69 0.4C 79.79 0.40000004 76.973335 -0.5666667 75.24 -2.5C 73.50667 -4.4333334 72.64 -7.55 72.64 -11.85L72.64 -11.85L72.64 -16.05L81.09 -16.05L81.09 -10.7C 81.09 -8.566667 81.77333 -7.5 83.14 -7.5C 83.90667 -7.5 84.44 -7.726667 84.74 -8.18C 85.04 -8.626667 85.19 -9.383334 85.19 -10.45C 85.19 -11.85 85.02334 -13.01 84.69 -13.93C 84.356674 -14.843334 83.933334 -15.610001 83.42 -16.23C 82.9 -16.843334 81.973335 -17.8 80.64 -19.1L80.64 -19.1L76.94 -22.8C 74.07333 -25.6 72.64 -28.7 72.64 -32.1C 72.64 -35.766666 73.48334 -38.559998 75.17 -40.48C 76.850006 -42.393333 79.30667 -43.35 82.54 -43.35C 86.40667 -43.35 89.19 -42.326668 90.89 -40.28C 92.590004 -38.22667 93.44 -35.01667 93.44 -30.65L93.44 -30.65L84.69 -30.65L84.64 -33.6C 84.64 -34.166668 84.48334 -34.61667 84.17 -34.95C 83.850006 -35.283337 83.40667 -35.450005 82.84 -35.45C 82.17333 -35.450005 81.67333 -35.26667 81.34 -34.9C 81.00667 -34.533333 80.84 -34.033333 80.84 -33.4C 80.84 -32 81.64 -30.55 83.24 -29.05L83.24 -29.05L88.24 -24.25C 89.40666 -23.116667 90.37334 -22.043333 91.14 -21.03C 91.90667 -20.01 92.52333 -18.810001 92.99 -17.43C 93.456665 -16.043335 93.69 -14.400001 93.69 -12.5C 93.69 -8.266667 92.91667 -5.0600004 91.37 -2.88C 89.816666 -0.6933334 87.25667 0.40000004 83.69 0.4zM104.29 0L96.54 0L96.54 -42.95L109.64 -42.95L113.24 -16.75L116.84 -42.95L130.04 -42.95L130.04 0L122.19 0L122.19 -30.95L117.24 0L109.54 0L104.29 -30.95L104.29 0zM141.04 0L132.69 0L136.84 -42.95L151.39 -42.95L155.49 0L147.34 0L146.74 -6.95L141.54 -6.95L141.04 0zM143.79 -35.65L142.19 -13.8L146.09 -13.8L144.19 -35.65L143.79 -35.65zM168.28 0.4C 164.38667 0.40000004 161.57333 -0.5666667 159.84 -2.5C 158.10667 -4.4333334 157.24002 -7.55 157.24 -11.85L157.24 -11.85L157.24 -16.05L165.69 -16.05L165.69 -10.7C 165.69 -8.566667 166.37335 -7.5 167.74 -7.5C 168.5 -7.5 169.03334 -7.726667 169.34 -8.18C 169.63333 -8.626667 169.78 -9.383334 169.78 -10.45C 169.78 -11.85 169.61334 -13.01 169.28 -13.93C 168.94667 -14.843334 168.52335 -15.610001 168.01 -16.23C 167.49667 -16.843334 166.57333 -17.8 165.24 -19.1L165.24 -19.1L161.53 -22.8C 158.67001 -25.6 157.24002 -28.7 157.24 -32.1C 157.24002 -35.766666 158.08002 -38.559998 159.76 -40.48C 161.44 -42.393333 163.89667 -43.35 167.13 -43.35C 171.00334 -43.35 173.79001 -42.326668 175.49 -40.28C 177.18333 -38.22667 178.03 -35.01667 178.03 -30.65L178.03 -30.65L169.28 -30.65L169.24 -33.6C 169.24002 -34.166668 169.08002 -34.61667 168.76 -34.95C 168.44 -35.283337 168 -35.450005 167.44 -35.45C 166.77335 -35.450005 166.27335 -35.26667 165.94 -34.9C 165.60667 -34.533333 165.44 -34.033333 165.44 -33.4C 165.44 -32 166.24 -30.55 167.84 -29.05L167.84 -29.05L172.84 -24.25C 174.00667 -23.116667 174.97333 -22.043333 175.74 -21.03C 176.5 -20.01 177.11667 -18.810001 177.59 -17.43C 178.05 -16.043335 178.28 -14.400001 178.28 -12.5C 178.28 -8.266667 177.50667 -5.0600004 175.96 -2.88C 174.40668 -0.6933334 171.84668 0.40000004 168.28 0.4zM193.43 0L184.83 0L184.83 -34.7L179.73 -34.7L179.73 -42.95L198.53 -42.95L198.53 -34.7L193.43 -34.7L193.43 0zM218.68 0L200.93 0L200.93 -42.95L218.13 -42.95L218.13 -34.65L209.68 -34.65L209.68 -26.3L217.78 -26.3L217.78 -18.2L209.68 -18.2L209.68 -8.35L218.68 -8.35L218.68 0zM221.53 0L221.53 -42.95L234.73 -42.95C 236.83 -42.950005 238.45334 -42.47667 239.6 -41.53C 240.75334 -40.576668 241.53 -39.24 241.93 -37.52C 242.33002 -35.806667 242.53001 -33.61667 242.53 -30.95C 242.53001 -28.516668 242.21335 -26.616669 241.58 -25.25C 240.94669 -23.883335 239.84668 -22.933334 238.28 -22.4C 239.58 -22.133333 240.52 -21.483334 241.1 -20.45C 241.68668 -19.416668 241.98001 -18.016666 241.98 -16.25L241.98 -16.25L241.88 0L233.48 0L233.48 -16.8C 233.48001 -18 233.24667 -18.766666 232.78 -19.1C 232.31334 -19.433334 231.46333 -19.600002 230.23 -19.6L230.23 -19.6L230.23 0L221.53 0zM230.28 -27.05L232.33 -27.05C 233.53 -27.05 234.13 -28.35 234.13 -30.95C 234.13 -32.083336 234.08 -32.933334 233.98 -33.5C 233.88 -34.066666 233.69667 -34.46 233.43 -34.68C 233.16333 -34.893333 232.78 -35 232.28 -35L232.28 -35L230.28 -35L230.28 -27.05zM258.68 0L250.58 0L250.58 -14.15L243.73 -42.95L252.23 -42.95L254.63 -28.4L257.03 -42.95L265.53 -42.95L258.68 -14.15L258.68 0z" stroke="none" fill="#C4975B" fill-rule="nonzero" />
														</g>
													</g>
												</g>
											</g>
										</g>
									</g>
								</g>
							</g>
							<g>
								<g transform="matrix(1 0 0 1 0 0)">
									<g>
										<g transform="matrix(1.5097303 0 0 1.5097303 -3.0194607 -3.0194635)">
                                            <path d="M32 32C 33.654 32 35 30.654 35 29L35 29L35 24.414L37 22.414L37 30.917L36.037 36.697L30.593 48.15C 30.159 49.142002 30.177 50.245003 30.643 51.178C 31.085 52.064003 31.865 52.678 32.838 52.908C 33.106003 52.971 33.374 53.002003 33.637 53.002003C 34.826 53.002003 35.933002 52.382004 36.523003 51.348003L36.523003 51.348003L42.840004 41.542004C 42.896004 41.455 42.939003 41.359005 42.965004 41.258003L42.965004 41.258003L44.102 37L45.809002 37L45.938004 42.416C 45.986004 44.426 47.598003 46 49.608 46C 51.482002 46 53.050003 44.596 53.257 42.734C 53.263 42.684002 53.264 42.634003 53.262 42.584L53.262 42.584L52.998 35.96C 52.994 35.846 52.97 35.733997 52.928 35.628L52.928 35.628L50.928 30.627998C 50.777 30.249 50.409 30 50 30L50 30L47 30L47 26.326L50.274 27.262001C 50.543 27.339 50.815 27.376001 51.085 27.376001C 51.71 27.376001 52.321 27.174002 52.836998 26.784C 53.576 26.227 54 25.376 54 24.451C 54 23.153 53.128 21.997 51.88 21.64L51.88 21.64L51.121002 21.423L52.835 12L61 12C 61.347 12 61.668 11.82 61.851 11.526C 62.033 11.231 62.050003 10.863 61.895 10.553L61.895 10.553L60.118 7L61.894 3.447C 62.049 3.137 62.032 2.769 61.850002 2.474C 61.668 2.18 61.347 2 61 2L61 2L52 2C 51.448 2 51 2.448 51 3L51 3L51 10.91L49.189 20.871L47 20.246L47 20C 47 17.243 44.757 15 42 15L42 15L36.829 15C 36.028 15 35.274 15.312 34.706997 15.879L34.706997 15.879L29.292997 21.293C 29.105 21.48 29 21.735 29 22L29 22L29 29C 29 30.654 30.346 32 32 32zM53 4L59.382 4L58.106 6.553C 57.965 6.835 57.965 7.166 58.106 7.448L58.106 7.448L59.382 10L53 10L53 4zM51.008 36.212L51.262 42.579002C 51.139 43.394 50.439 44 49.609 44C 48.694 44 47.960003 43.283 47.938 42.368L47.938 42.368L47.786 35.975998C 47.773 35.433 47.329 34.999996 46.786 34.999996L46.786 34.999996L43.334 34.999996L43.22 34.999996L43.82 31.999996L46 31.999996L49.322998 31.999996L51.008 36.212zM52 24.451C 52 24.743 51.866 25.012001 51.633 25.188C 51.399998 25.365 51.105 25.419 50.823997 25.338999L50.823997 25.338999L46.242996 24.029999L43 23.219L43 21.281L45.741 21.967001L51.33 23.564001C 51.725 23.676 52 24.041 52 24.451zM31 22.414L36.121 17.293C 36.31 17.104 36.562 17 36.829 17L36.829 17L42 17C 43.559 17 44.843 18.194 44.987 19.716L44.987 19.716L42.243 19.029999C 41.947 18.956 41.628 19.022999 41.385 19.211998C 41.142 19.401 41 19.692 41 20L41 20L41 24C 41 24.459 41.312 24.859 41.757 24.97L41.757 24.97L45 25.781L45 30L43 30C 42.523 30 42.113 30.336 42.02 30.804L42.02 30.804L41.02 35.804C 40.961002 36.098 41.037 36.403 41.227 36.634003C 41.417 36.866 41.7 37 42 37L42 37L42.032 37L41.074 40.59L34.814003 50.309C 34.510002 50.842 33.902004 51.105 33.298004 50.961C 32.803005 50.843998 32.553005 50.528 32.431004 50.282997C 32.231003 49.882996 32.229004 49.398 32.411003 48.978996L32.411003 48.978996L37.902004 37.427998C 37.942005 37.343998 37.970005 37.254997 37.985004 37.163L37.985004 37.163L38.985004 31.162998C 38.996 31.11 39 31.055 39 31L39 31L39 20C 39 19.596 38.756 19.231 38.383 19.076C 38.259 19.025 38.129 19 38 19C 37.74 19 37.484 19.102 37.293 19.293L37.293 19.293L33.293 23.293C 33.105 23.48 33 23.735 33 24L33 24L33 29C 33 29.551 32.551 30 32 30C 31.449001 30 31 29.551 31 29L31 29L31 22.414z" stroke="none" fill="#C4975B" fill-rule="nonzero" />
                                            <path d="M41.5 14C 44.533 14 47 11.533 47 8.5C 47 5.467 44.533 3 41.5 3C 38.467 3 36 5.467 36 8.5C 36 11.533 38.467 14 41.5 14zM41.5 5C 43.43 5 45 6.57 45 8.5C 45 10.43 43.43 12 41.5 12C 39.57 12 38 10.43 38 8.5C 38 6.5699997 39.57 5 41.5 5z" stroke="none" fill="#C4975B" fill-rule="nonzero" />
                                            <path d="M56 42L56 48L43 48C 42.448 48 42 48.448 42 49L42 49L42 55L29 55C 28.448 55 28 55.448 28 56L28 56L28 62L30 62L30 57L43 57C 43.552 57 44 56.552 44 56L44 56L44 50L57 50C 57.552 50 58 49.552 58 49L58 49L58 43L62 43L62 41L57 41C 56.448 41 56 41.448 56 42z" stroke="none" fill="#C4975B" fill-rule="nonzero" />
                                            <path d="M5.854 62L6.084 62C 7.678 62 9.046 60.917 9.411 59.365L9.411 59.365L12.191 47.550003L16.486 59.72C 16.967001 61.084 18.263 62 19.709 62C 20.807999 62 21.812 61.492 22.462 60.607C 23.112999 59.720997 23.299 58.611 22.971 57.561996L22.971 57.561996L19 44.847L19 40.951L21.444 41.475C 21.651001 41.518997 21.859001 41.541 22.065 41.541C 22.731 41.541 23.379 41.314 23.909 40.886C 24.602 40.326 25 39.492 25 38.59C 25 37.194 24.006 35.982 22.637001 35.707L22.637001 35.707L19 34.98L19 31C 19 28.846 17.623 27.023 15.71 26.321C 16.503 25.435 17 24.279 17 23C 17 20.243 14.757 18 12 18C 9.243 18 7 20.243 7 23C 7 24.279 7.497 25.435 8.29 26.321C 6.377 27.023 5 28.846 5 31L5 31L5 42.917L2.483 58.02C 2.3170002 59.013 2.596 60.023 3.247 60.791C 3.897 61.56 4.848 62 5.854 62zM23 38.6C 23 38.885 22.873 39.151997 22.651 39.330997C 22.428999 39.510998 22.140999 39.579 21.862999 39.518997L21.862999 39.518997L11 37.191L11 33C 11 32.449 11.449 32 12 32C 12.551 32 13 32.449 13 33L13 33L13 35C 13 35.477 13.336 35.887 13.804 35.98L13.804 35.98L22.244 37.668C 22.682 37.756 23 38.144 23 38.6zM12 20C 13.654 20 15 21.346 15 23C 15 24.654 13.654 26 12 26C 10.346 26 9 24.654 9 23C 9 21.346 10.346 20 12 20zM4.456 58.349L6.9869995 43.163998C 6.996 43.11 7 43.055 7 43L7 43L7 31C 7 29.346 8.346 28 10 28L10 28L14 28C 15.654 28 17 29.346 17 31L17 31L17 34.58L15 34.18L15 33C 15 31.346 13.654 30 12 30C 10.346 30 9 31.346 9 33L9 33L9 38C 9 38.472 9.33 38.879 9.791 38.978L9.791 38.978L17 40.523L17 45C 17 45.101 17.015 45.202 17.045 45.298L17.045 45.298L21.064 58.158C 21.199999 58.593002 21.123 59.054 20.852999 59.421C 20.583 59.79 20.167 60 19.711 60C 19.111 60 18.573 59.62 18.374 59.054L18.374 59.054L12.943001 43.667C 12.801 43.266 12.422 43 12 43C 11.982 43 11.964 43 11.945 43.001C 11.502 43.024998 11.127999 43.338 11.026 43.771L11.026 43.771L7.465 58.907C 7.313 59.55 6.746 60 6.085 60L6.085 60L5.855 60C 5.438 60 5.043 59.817 4.773 59.499C 4.5029993 59.181 4.387 58.761 4.456 58.349z" stroke="none" fill="#C4975B" fill-rule="nonzero" />
										</g>
									</g>
								</g>
							</g>
						</g>
					</g>
				</g>
			</g>
		</g>
	</g>
</g>
</svg>